<svg width="302" height="67" viewBox="0 0 302 67" fill="none" xmlns="http://www.w3.org/2000/svg">
<path d="M92.5 52.8C93.2 53.1 94 53.4 94.9 53.7C95.8 54 96.9 54.2 98.1 54.4C99.3 54.6 100.6 54.7 102 54.7C106.2 54.7 109.5 53.8 111.9 52C114.3 50.2 115.5 47.5 115.5 44.1C115.5 42.3 115.2 40.7 114.7 39.4C114.2 38.1 113.4 37 112.4 36.1C111.4 35.2 110.3 34.4 109 33.7C107.8 33.1 106.3 32.4 104.8 31.8C103.7 31.4 102.8 31 101.9 30.5C101 30.1 100.3 29.6 99.6 29.1C99 28.6 98.5 28.1 98.2 27.5C97.9 26.9 97.7 26.2 97.7 25.3C97.7 24.5 97.9 23.8 98.2 23.2C98.5 22.6 98.9 22.1 99.5 21.8C100.1 21.4 100.7 21.1 101.5 20.9C102.3 20.7 103.1 20.6 104 20.6C105.8 20.6 107.4 20.8 108.7 21.2C110.1 21.6 111.1 22.1 111.7 22.5L112.3 22.9L114.3 17.7L114 17.5C113.1 16.9 111.8 16.3 110 15.8C108.2 15.3 106.2 15.1 104 15.1C100.2 15.1 97.2 16.1 95 18C92.8 19.9 91.7 22.6 91.7 26C91.7 27.6 92 29.1 92.5 30.2C93 31.4 93.7 32.4 94.6 33.2C95.5 34 96.5 34.8 97.7 35.4C98.9 36 100.1 36.5 101.4 37C102.5 37.4 103.6 37.9 104.6 38.3C105.6 38.7 106.4 39.2 107.2 39.8C107.9 40.3 108.5 41 108.9 41.7C109.3 42.4 109.5 43.3 109.5 44.3C109.5 47.7 107.1 49.3 102.3 49.3C100.1 49.3 98.2 49 96.6 48.5C95 47.9 93.9 47.4 93.1 47L92.5 46.7L90.7 52L91.1 52.2C91.3 52.2 91.9 52.5 92.5 52.8Z" fill="white"/>
<path fill-rule="evenodd" clip-rule="evenodd" d="M138 25.7C139.7 26.4 141.1 27.5 142.3 28.8C143.5 30.1 144.4 31.7 145.1 33.6C145.8 35.5 146.1 37.5 146.1 39.7C146.1 41.9 145.8 44 145.1 45.8C144.4 47.6 143.5 49.2 142.3 50.5C141.1 51.9 139.7 52.9 138 53.6C136.3 54.3 134.5 54.7 132.6 54.7C130.7 54.7 128.8 54.3 127.2 53.6C125.5 52.8 124.1 51.8 122.9 50.5C121.7 49.2 120.8 47.6 120.1 45.8C119.4 44 119.1 41.9 119.1 39.7C119.1 37.5 119.4 35.4 120.1 33.6C120.8 31.7 121.7 30.1 122.9 28.8C124.1 27.4 125.6 26.4 127.2 25.7C128.9 25 130.7 24.6 132.6 24.6C134.5 24.6 136.4 25 138 25.7ZM132.6 49.2C134.9 49.2 136.6 48.4 137.9 46.7C139.2 45 139.9 42.6 139.9 39.7C139.9 36.8 139.2 34.4 137.9 32.7C136.6 31 134.8 30.2 132.6 30.2C130.3 30.2 128.6 31 127.3 32.7C126 34.4 125.3 36.7 125.3 39.7C125.3 42.6 126 45 127.3 46.7C128.6 48.4 130.4 49.2 132.6 49.2Z" fill="white"/>
<path d="M167.5 12.8C167 12.6 166.3 12.4 165.2 12.2C164.1 12 162.8 11.9 161.4 11.9C157.6 11.9 154.7 12.9 152.9 15C151.1 17 150.2 19.9 150.2 23.5V59.6L156.2 58.6V30.7H166.8V25.5H156.2V23.7C156.2 21.7 156.6 20.1 157.5 19C158.3 17.9 159.8 17.3 161.9 17.3C163 17.3 163.9 17.4 164.6 17.6C165.3 17.8 165.9 18 166.3 18.2L166.9 18.5L168 13.2L167.5 12.8Z" fill="white"/>
<path fill-rule="evenodd" clip-rule="evenodd" d="M232.8 49.5C232.3 48.3 232 46.9 232 45.2C232 43.6 232.4 42.2 233.2 41.3C233.9 40.2 234.8 39.2 235.9 38.5C237 37.8 238.3 37.2 239.8 36.9C241.3 36.6 242.7 36.4 244.1 36.4H244.1C244.7 36.4 245.3 36.4 245.9 36.5C246.4 36.5 246.9 36.6 247.4 36.7C247.619 36.7438 247.819 36.7685 248 36.7907C248.232 36.8192 248.432 36.8438 248.6 36.9H248.7V36.2C248.7 35.4 248.6 34.6 248.4 33.9C248.2 33.2 247.9 32.5 247.5 32C247.1 31.5 246.5 31 245.8 30.7C245 30.4 244.1 30.2 242.9 30.2C241.3 30.2 239.9 30.3 238.7 30.5C237.644 30.6761 236.897 30.9297 236.324 31.1243C236.246 31.1507 236.172 31.1761 236.1 31.2L235.5 31.5L234.8 26.3L235.2 26.1C235.9 25.8 237 25.5 238.5 25.2C240 24.9 241.7 24.8 243.4 24.8C245.4 24.8 247.2 25.1 248.6 25.6C250 26.1 251.2 26.9 252.1 27.9C253 28.9 253.6 30 254 31.4C254.3 32.7 254.5 34.2 254.5 35.8V53.4L254 53.5C253.6 53.6 253 53.7 252.2 53.8C251.5 53.9 250.6 54 249.6 54.1C248.7 54.2 247.6 54.3 246.5 54.4C245.4 54.5 244.3 54.5 243.2 54.5C241.6 54.5 240.1 54.3 238.8 54C237.4 53.7 236.2 53.1 235.2 52.4C234.2 51.7 233.4 50.7 232.8 49.5ZM240.2 42C239.6 42.3 239.1 42.7 238.7 43.2C238.3 43.7 238.1 44.3 238 45.2C238 46.8 238.4 47.8 239.4 48.4C240.4 49.1 241.9 49.4 243.7 49.4H243.7C244.9 49.4 245.9 49.4 246.8 49.3C247.115 49.255 247.39 49.2302 247.643 49.2075C247.95 49.1797 248.225 49.155 248.5 49.1H248.6V41.7C248.3 41.6 247.9 41.5 247.4 41.4C246.6 41.3 245.7 41.2 244.6 41.2C243.9 41.2 243.1 41.3 242.3 41.4C241.5 41.5 240.8 41.7 240.2 42Z" fill="white"/>
<path fill-rule="evenodd" clip-rule="evenodd" d="M298.1 28.3C300.2 30.7 301.2 34.4 301.2 39.2V39.7C301.2 39.9144 301.171 40.1 301.145 40.2723C301.122 40.4215 301.1 40.5608 301.1 40.7L301 41.2H282.3V41.3C282.6 43.7 283.4 45.5 284.6 46.8C286 48.2 288.1 48.9 291 48.9C292.6 48.9 294.1 48.8 295.2 48.5C296.4 48.2 297.2 48 297.8 47.7L298.4 47.4L299.3 52.6L299 52.8C298.3 53.2 297.3 53.5 295.7 53.9C294.2 54.2 292.4 54.4 290.5 54.4C288.1 54.4 285.9 54 284.1 53.3C282.3 52.6 280.8 51.5 279.6 50.2C278.4 48.9 277.6 47.3 277 45.5C276.5 43.7 276.2 41.7 276.2 39.6C276.2 37.1 276.6 34.9 277.3 33C278 31.1 279 29.5 280.2 28.3C281.4 27.1 282.8 26.1 284.4 25.5C285.9 24.9 287.6 24.6 289.2 24.6C293 24.6 296 25.9 298.1 28.3ZM282.515 36.4C282.51 36.4333 282.505 36.4667 282.5 36.5V36.4H282.515ZM283 34.4C282.81 35.0667 282.619 35.7333 282.515 36.4H294.8V36.3C294.8 34.5 294.3 33 293.3 31.8C292.3 30.5 290.9 29.9 289 29.9C288 29.9 287.1 30.1 286.3 30.5C285.5 30.9 284.8 31.5 284.3 32.1C283.8 32.8 283.3 33.6 283 34.4L283 34.4Z" fill="white"/>
<path d="M274 30.2H274.3V24.7H274C266 24.7 262.7 25.5 259.9 26.9L259.8 27V54H265.8V31.3C267.7 30.5 272.2 30.1 274 30.2Z" fill="white"/>
<path d="M226.1 41.1C227.6 36.5 229.1 31.4 230.5 26L230.7 25.3H224.5L224.4 25.7C224 27.4 223.6 29.2 223.1 31.1C222.6 33 222.1 35 221.5 36.9C220.9 38.8 220.4 40.7 219.8 42.5C219.4 43.6 219.1 44.7 218.7 45.6L218.6 45.8L218.5 45.6C218.1 44.4 217.7 43.2 217.3 41.9C216.7 40.1 216.2 38.2 215.6 36.3C215.1 34.4 214.6 32.6 214.1 30.8C213.6 29 213.3 27.3 212.9 25.7L212.8 25.3H207.9L207.8 25.7C207.4 27.3 207 29 206.6 30.8C206.1 32.6 205.6 34.4 205.1 36.3C204.6 38.2 204 40.1 203.4 41.9C203 43.1 202.6 44.4 202.2 45.6L202.1 45.8L202 45.6C201.7 44.7 201.3 43.7 200.9 42.5C200.3 40.7 199.7 38.8 199.2 36.9C198.6 34.9 198.1 33 197.6 31.1C197.1 29.2 196.7 27.4 196.3 25.7L196.2 25.3H189.8L190 26C191.4 31.4 192.9 36.5 194.4 41.1C195.9 45.7 197.6 49.9 199.2 53.6L199.3 53.9H204.3L204.4 53.6C205.4 51 206.5 48.1 207.5 44.9C208.4 42.3 209.2 39.6 209.9 36.9L210 36.7L210.1 36.9C210.9 39.7 211.7 42.4 212.6 44.9C213.7 48.2 214.8 51.1 215.8 53.6L215.9 53.9H220.9L221 53.6C222.9 50 224.5 45.8 226.1 41.1Z" fill="white"/>
<path d="M182.3 54.6C183.8 54.6 185.1 54.5 186.1 54.3C187.2 54.1 187.9 53.9 188.4 53.7L188.8 53.5L187.7 48.2L187.1 48.5C186.7 48.7 186.2 48.9 185.4 49.1C184.7 49.3 183.7 49.4 182.7 49.4C180.6 49.4 179.1 48.8 178.3 47.7C177.5 46.6 177 45 177 43V30.6H187.4V25.4H177V16.8L171 17.8V43C171 46.6 171.9 49.5 173.7 51.5C175.6 53.6 178.5 54.6 182.3 54.6Z" fill="white"/>
<path d="M14.4 61.9C12.8 60.3 11.6 58.5 10.8 56.5C8.40001 50.6 9.60001 43.7 14.4 38.9L27.3 41.9L25.9 50.4L27.7 61.4L14.4 61.9Z" fill="#00C0FA"/>
<path d="M14.4 61.9L25.9 50.4L34.2 52.1L37.3 61.9C33.5 65.7 28.4 67.2 23.5 66.5C20.2 66 17 64.5 14.4 61.9Z" fill="#00b4ee"/>
<path d="M26.1 17.8C30.9049 17.8 34.8 13.9049 34.8 9.1C34.8 4.29512 30.9049 0.400002 26.1 0.400002C21.2951 0.400002 17.4 4.29512 17.4 9.1C17.4 13.9049 21.2951 17.8 26.1 17.8Z" fill="#00CEFC"/>
<path d="M48.4 17.8C53.2049 17.8 57.1 13.9049 57.1 9.1C57.1 4.29512 53.2049 0.400002 48.4 0.400002C43.5951 0.400002 39.7 4.29512 39.7 9.1C39.7 13.9049 43.5951 17.8 48.4 17.8Z" fill="#00CEFC"/>
<path d="M65.4 32.5C70.2049 32.5 74.1 28.6049 74.1 23.8C74.1 18.9951 70.2049 15.1 65.4 15.1C60.5951 15.1 56.7 18.9951 56.7 23.8C56.7 28.6049 60.5951 32.5 65.4 32.5Z" fill="#00CEFC"/>
<path d="M9.30001 32.5C14.1049 32.5 18 28.6049 18 23.8C18 18.9951 14.1049 15.1 9.30001 15.1C4.49513 15.1 0.600006 18.9951 0.600006 23.8C0.600006 28.6049 4.49513 32.5 9.30001 32.5Z" fill="#00CEFC"/>
<path d="M48.8 50.4L41.1 48.5L34.2 39.2L41.4 30.9L48.8 27.5L60.3 39L57.6 48.4L48.8 50.4Z" fill="#00CEFC"/>
<path d="M37.4 61.9L39.1 52.7L48.9 50.5L57 53.8L60.4 62C57.1 65.3 52.6 66.9 48.3 66.7C44.2 66.5 40.4 64.9 37.4 61.9Z" fill="#00b4ee"/>
<path d="M37.4 39L28.6 37.3L26 27.5C29.5 24 34.1 22.5 38.6 22.8C42.4 23.1 46 24.6 48.9 27.5L37.4 39Z" fill="#00E2FF"/>
<path d="M25.9 50.4L14.4 39L25.9 27.5L37.4 39L34.8 46.9L25.9 50.4Z" fill="#00CEFC"/>
<path d="M60.3 61.9L48.8 50.4L60.3 38.9C63.8 42.4 65.4 47.2 65 51.8C64.7 55.5 63.1 59.1 60.3 61.9Z" fill="#00C0FA"/>
<rect x="37.3362" y="38.914" width="16.1998" height="16.1998" transform="rotate(45 37.3362 38.914)" fill="#00C0FA"/>
</svg>
